<svg xmlns="http://www.w3.org/2000/svg" xmlns:xlink="http://www.w3.org/1999/xlink" width="59" height="59" viewBox="0 0 59 59">
  <defs>
    <clipPath id="clip-path">
      <circle id="Ellipse_1" data-name="Ellipse 1" cx="29.5" cy="29.5" r="29.5" transform="translate(-0.391 -0.192)" fill="#2aedff"/>
    </clipPath>
  </defs>
  <g id="Mask_Group_2" data-name="Mask Group 2" transform="translate(0.391 0.192)" clip-path="url(#clip-path)">
    <path id="iconmonstr-behance-4" d="M21.59,26.462h-4.8v-4.54h4.355C25.732,21.922,25.165,26.462,21.59,26.462Zm14.138,2.584h6.409C41.856,24.926,36.373,24.626,35.728,29.046Zm-14.41.967H16.791v4.755h4.455C25.6,34.766,25.332,30.013,21.319,30.013Zm37.3-.706A29.308,29.308,0,1,1,29.308,0,29.309,29.309,0,0,1,58.615,29.308Zm-32.622-1.79c4.074-2.083,3.925-9.723-3.876-9.838H12.211V39h9.21C31.088,39,30.924,29.312,25.993,27.517Zm8.2-7.732h9.769V17.648H34.192ZM46.264,28.8c-1.331-8.56-14.783-9.063-14.783,2.13,0,11.054,12.651,9.325,14.529,3.81H41.5a3.454,3.454,0,0,1-5.871-2.892H46.4A19.053,19.053,0,0,0,46.264,28.8Z" fill="#c9edff"/>
  </g>
</svg>
