<svg xmlns="http://www.w3.org/2000/svg" xmlns:xlink="http://www.w3.org/1999/xlink" width="59" height="59" viewBox="0 0 59 59">
  <defs>
    <clipPath id="clip-path">
      <circle id="Ellipse_2" data-name="Ellipse 2" cx="29.5" cy="29.5" r="29.5" transform="translate(-0.192 -0.192)" fill="#c9edff"/>
    </clipPath>
  </defs>
  <g id="Mask_Group_1" data-name="Mask Group 1" transform="translate(0.192 0.192)" clip-path="url(#clip-path)">
    <path id="iconmonstr-github-1" d="M29.308,0a29.311,29.311,0,0,0-9.264,57.118c1.463.271,1.937-.637,1.937-1.409V50.253c-8.152,1.773-9.85-3.458-9.85-3.458-1.333-3.387-3.256-4.289-3.256-4.289-2.66-1.82.2-1.78.2-1.78a6.152,6.152,0,0,1,4.491,3.021c2.613,4.479,6.856,3.185,8.529,2.435a6.218,6.218,0,0,1,1.861-3.917c-6.509-.745-13.352-3.258-13.352-14.485a11.343,11.343,0,0,1,3.019-7.867,10.542,10.542,0,0,1,.286-7.757s2.462-.786,8.062,3a27.779,27.779,0,0,1,14.676,0c5.6-3.79,8.052-3,8.052-3a10.532,10.532,0,0,1,.288,7.757,11.313,11.313,0,0,1,3.016,7.867c0,11.257-6.856,13.735-13.381,14.461a7.005,7.005,0,0,1,2.01,5.427v8.042c0,.779.469,1.695,1.956,1.407A29.313,29.313,0,0,0,29.308,0Z" transform="translate(0 0.723)" fill="#c9edff"/>
  </g>
</svg>
